<?xml version="1.0" encoding="UTF-8"?>
<svg xmlns="http://www.w3.org/2000/svg" viewBox="0 0 512 512" width="512" height="512">
  <defs>
    <filter id="shadow" x="-30%" y="-30%" width="160%" height="170%">
      <feDropShadow dx="0" dy="20" stdDeviation="16" flood-color="#050013" flood-opacity=".45"/>
    </filter>
    <filter id="glow" x="-40%" y="-40%" width="180%" height="180%">
      <feGaussianBlur stdDeviation="10" result="blur"/>
      <feMerge><feMergeNode in="blur"/><feMergeNode in="SourceGraphic"/></feMerge>
    </filter>
  </defs>
  
  <defs><linearGradient id="g" x1="130" y1="120" x2="410" y2="390"><stop stop-color="#91f7ff"/><stop offset=".42" stop-color="#22a8ff"/><stop offset="1" stop-color="#0b58c8"/></linearGradient></defs>
  <path d="M140 274c66-91 183-118 268-30 34-31 58-52 88-63-12 44-27 78-57 103 28 30 42 63 53 105-38-11-65-28-95-60-95 62-215 42-257-55z" fill="url(#g)" filter="url(#shadow)"/>
  <circle cx="256" cy="244" r="128" fill="url(#g)"/>
  <path d="M184 250c34-27 75-45 122-54" fill="none" stroke="#73dcff" stroke-width="18" opacity=".65"/>
  <circle cx="210" cy="220" r="22" fill="#fff"/><circle cx="218" cy="222" r="10" fill="#112a6f"/>
  <path d="M315 155c33 8 57 26 72 54-41 6-73-2-97-25z" fill="#44cfff"/>
  <path d="M316 361c34-7 61-25 82-53-44-9-78 0-105 25z" fill="#1894ef"/>

</svg>